<?xml version="1.0" encoding="UTF-8" standalone="no"?>
<!-- Generator: Adobe Illustrator 16.0.0, SVG Export Plug-In . SVG Version: 6.00 Build 0)  -->

<svg
   version="1.1"
   id="Layer_1"
   x="0px"
   y="0px"
   width="611.834px"
   height="706.506px"
   viewBox="0.083 42.123 611.834 706.506"
   enable-background="new 0.083 42.123 611.834 706.506"
   xml:space="preserve"
   sodipodi:docname="graphvec.svg"
   inkscape:version="1.4.2 (1:1.4.2+202505120737+ebf0e940d0)"
   xmlns:inkscape="http://www.inkscape.org/namespaces/inkscape"
   xmlns:sodipodi="http://sodipodi.sourceforge.net/DTD/sodipodi-0.dtd"
   xmlns="http://www.w3.org/2000/svg"
   xmlns:svg="http://www.w3.org/2000/svg"><defs
   id="defs18" /><sodipodi:namedview
   id="namedview18"
   pagecolor="#ffffff"
   bordercolor="#666666"
   borderopacity="1.0"
   inkscape:showpageshadow="2"
   inkscape:pageopacity="0.0"
   inkscape:pagecheckerboard="0"
   inkscape:deskcolor="#d1d1d1"
   inkscape:zoom="1.050333"
   inkscape:cx="288.47994"
   inkscape:cy="327.03914"
   inkscape:window-width="1870"
   inkscape:window-height="1052"
   inkscape:window-x="0"
   inkscape:window-y="0"
   inkscape:window-maximized="1"
   inkscape:current-layer="Layer_1"
   showguides="false" />
<polygon
   id="fill"
   fill="#428BCA"
   points="611.917,572.053 305.999,748.657 0.083,572.05 0.083,218.756 305.999,42.151   611.917,218.756 "
   style="fill:#ab6ce4;fill-opacity:1" />
<linearGradient
   id="gradient_1_"
   gradientUnits="userSpaceOnUse"
   x1="305.6709"
   y1="404.7256"
   x2="305.6709"
   y2="134.4175"
   gradientTransform="matrix(1 0 0 1 0 -80)">
	<stop
   offset="0"
   style="stop-color:#FFFFFF;stop-opacity:0"
   id="stop1" />
	<stop
   offset="1"
   style="stop-color:#FFFFFF"
   id="stop2" />
</linearGradient>



<path
   id="outline"
   style="fill:#8c36da;fill-opacity:1"
   d="M 306.00097 42.123 L 255.79003 71.099562 L 24.479484 204.6562 L 0.083 218.72847 L 0.083 572.02144 L 24.479484 586.09175 L 258.62011 721.31636 L 306.00097 748.62886 L 353.37792 721.31636 L 587.5205 586.09566 L 611.91698 572.02534 L 611.91698 218.72847 L 587.5205 204.6562 L 356.20995 71.099562 L 306.00097 42.123 z M 306.00097 71.099562 L 572.51855 224.97261 L 306.34863 378.59761 L 39.500969 224.96089 L 306.00097 71.099562 z M 24.479484 245.15816 L 293.87597 400.26362 L 294.30566 714.56441 L 24.479484 558.78316 L 24.479484 245.15816 z M 587.5205 245.17964 L 587.5205 558.78316 L 319.3037 713.63472 L 318.87597 400.23042 L 587.5205 245.17964 z " />
<polygon
   class="st1"
   points="2533.5,742.1 1272.6,1470 12.5,742.2 1273.2,15.3 "
   id="polygon17"
   style="display:inline;fill:none"
   transform="matrix(0.2434506,0,0,0.2434506,-3.0522475,35.073931)" /><g
   id="g79"
   transform="matrix(1.2475997,0.72534036,0,1.2475997,232.76522,203.52221)"
   inkscape:label="graph"><g
     id="g2"
     style="fill:#ffffff;fill-opacity:0.5"
     inkscape:label="nodes"><circle
       style="fill:#ffffff;fill-opacity:0.5;stroke:none;stroke-width:2;stroke-dasharray:none;stroke-opacity:0.742644;paint-order:fill markers stroke"
       id="circle70"
       cx="-89.21273"
       cy="226.2403"
       r="20" /><circle
       style="fill:#ffffff;fill-opacity:0.5;stroke:none;stroke-width:2;stroke-dasharray:none;stroke-opacity:0.742644;paint-order:fill markers stroke"
       id="circle71"
       cx="-129.21274"
       cy="286.2403"
       r="20" /><circle
       style="fill:#ffffff;fill-opacity:0.5;stroke:none;stroke-width:2;stroke-dasharray:none;stroke-opacity:0.742644;paint-order:fill markers stroke"
       id="circle72"
       cx="-49.21273"
       cy="286.2403"
       r="20" /><circle
       style="fill:#ffffff;fill-opacity:0.5;stroke:none;stroke-width:2;stroke-dasharray:none;stroke-opacity:0.742644;paint-order:fill markers stroke"
       id="circle73"
       cx="-103.21273"
       cy="346.2403"
       r="20" /><circle
       style="fill:#ffffff;fill-opacity:0.5;stroke:none;stroke-width:2;stroke-dasharray:none;stroke-opacity:0.742644;paint-order:fill markers stroke"
       id="circle74"
       cx="-49.21273"
       cy="346.2403"
       r="20" /><circle
       style="fill:#ffffff;fill-opacity:0.5;stroke:none;stroke-width:2;stroke-dasharray:none;stroke-opacity:0.742644;paint-order:fill markers stroke"
       id="circle75"
       cx="4.7872677"
       cy="346.2403"
       r="20" /></g><path
     id="path79"
     style="fill:#ffffff;fill-opacity:0.255714;stroke:#ffffff;stroke-width:2.00001;stroke-dasharray:none;stroke-opacity:0.533062;paint-order:fill markers stroke"
     d="m -49.690608,306.10495 -0.39892,20.29952 m 14.16192,-25.24104 28.2923503,29.3524 m -54.4542103,-29.40608 -27.94323,29.35849 m 10.98168,-87.14231 18.4274,26.7636 m -38.39676,-26.46042 -17.657932,27.12688"
     inkscape:label="edges" /><text
     xml:space="preserve"
     style="font-style:normal;font-variant:normal;font-weight:normal;font-stretch:normal;font-size:80px;font-family:'Noto Sans';-inkscape-font-specification:'Noto Sans';text-align:center;writing-mode:lr-tb;direction:ltr;text-anchor:middle;fill:#ffffff;fill-opacity:1;stroke-width:0.6;stroke-linejoin:round;stroke-dashoffset:36.474"
     x="151.32457"
     y="301.18582"
     id="text2"
     transform="matrix(0.80153915,-0.00323695,0.01395678,0.80148278,-186.57044,-54.661077)"
     inkscape:label="text-graph"><tspan
       sodipodi:role="line"
       id="tspan2"
       x="151.32457"
       y="301.18582"
       style="font-size:80px">graph</tspan></text></g><g
   id="g53"
   transform="translate(0,20)"
   inkscape:label="vec"><path
     id="rect48"
     style="fill:#ffffff;fill-opacity:0.5;stroke-width:0.307626;paint-order:fill markers stroke"
     transform="matrix(0.86568265,-0.5005932,0,1,0,0)"
     d="m 622.0694,715.24573 h 44.10795 v 37.96101 H 622.0694 Z m -48.5188,0 h 44.10795 v 37.96101 H 573.5506 Z m -48.51868,0 h 44.10795 v 37.96101 h -44.10795 z m -48.51883,0 44.10795,0 v 37.96101 l -44.10795,0 z m -48.51871,0 h 44.10796 v 37.96101 h -44.10796 z m -48.51873,0 h 44.10795 v 37.96101 h -44.10795 z"
     inkscape:label="nodes" /><g
     id="g73"
     inkscape:label="edges"><path
       style="fill:none;fill-opacity:1;stroke:#ffffff;stroke-width:1.9036;stroke-dasharray:none;stroke-opacity:0.742644;paint-order:fill markers stroke"
       d="m 347.94221,514.27736 c 0,-15.68527 41.10516,-38.99834 41.10516,-23.96831"
       id="path48"
       sodipodi:nodetypes="cc" /><path
       style="fill:none;fill-opacity:1;stroke:#ffffff;stroke-width:1.9036;stroke-dasharray:none;stroke-opacity:0.742644;paint-order:fill markers stroke"
       d="m 348.29853,514.08303 c 0,-23.39969 83.0579,-70.748 83.0579,-48.32579"
       id="path49"
       sodipodi:nodetypes="cc" /><path
       style="fill:none;fill-opacity:1;stroke:#ffffff;stroke-width:1.9036;stroke-dasharray:none;stroke-opacity:0.742644;paint-order:fill markers stroke"
       d="m 432.04923,502.98859 c 0,15.68527 41.10516,-8.54091 41.10516,-23.57095"
       id="path50"
       sodipodi:nodetypes="cc" /><path
       style="fill:none;fill-opacity:1;stroke:#ffffff;stroke-width:1.9036;stroke-dasharray:none;stroke-opacity:0.742644;paint-order:fill markers stroke"
       d="m 432.04339,503.00055 c 0,20.47479 83.11866,-28.18571 83.11866,-47.8052"
       id="path51"
       sodipodi:nodetypes="cc" /><path
       style="fill:none;fill-opacity:1;stroke:#ffffff;stroke-width:1.9036;stroke-dasharray:none;stroke-opacity:0.742644;paint-order:fill markers stroke"
       d="m 432.22724,502.92415 c 0,25.61872 124.7925,-47.28997 124.7925,-71.83851"
       id="path52"
       sodipodi:nodetypes="cc" /></g><text
     xml:space="preserve"
     style="font-style:normal;font-variant:normal;font-weight:normal;font-stretch:normal;font-size:80px;font-family:'Noto Sans';-inkscape-font-specification:'Noto Sans';text-align:center;writing-mode:lr-tb;direction:ltr;text-anchor:middle;fill:#ffffff;fill-opacity:1;stroke-width:0.6;stroke-linejoin:round;stroke-dashoffset:36.474"
     x="453.92178"
     y="655.65259"
     id="text3"
     transform="matrix(1,-0.57735027,0,1,0,-20)"
     inkscape:label="text-vec"><tspan
       sodipodi:role="line"
       id="tspan3"
       x="453.92178"
       y="655.65259"
       style="font-size:80px">vec</tspan></text></g><path
   id="rect71"
   style="fill:#ffffff;fill-opacity:0.5;stroke-width:0.286221;paint-order:fill markers stroke"
   d="m 521.76702,208.25439 c -12.09757,6.9956 -24.19514,13.9912 -36.29272,20.9868 10.33818,5.96875 20.67636,11.9375 31.01454,17.90625 12.09757,-6.9956 24.19515,-13.9912 36.29272,-20.9868 -10.33818,-5.96875 -20.67636,-11.9375 -31.01454,-17.90625 z m -41.96868,24.26901 c -12.09758,6.9956 -24.19515,13.99121 -36.29272,20.98681 10.33817,5.96875 20.67635,11.9375 31.01453,17.90625 12.09757,-6.9956 24.19515,-13.99121 36.29272,-20.98681 -10.33818,-5.96875 -20.67636,-11.9375 -31.01453,-17.90625 z m -41.967,24.26804 c -12.09814,6.99593 -24.19627,13.99185 -36.29441,20.98778 10.33818,5.96875 20.67635,11.9375 31.01453,17.90625 12.09814,-6.99593 24.19628,-13.99185 36.29441,-20.98778 -10.33817,-5.96875 -20.67635,-11.9375 -31.01453,-17.90625 z m -41.96869,24.26902 c -12.09814,6.99592 -24.19627,13.99185 -36.29441,20.98777 10.33818,5.96875 20.67636,11.93751 31.01454,17.90625 12.09813,-6.99592 24.19627,-13.99185 36.29441,-20.98777 -10.33818,-5.96875 -20.67636,-11.9375 -31.01454,-17.90625 z m -41.96869,24.26901 c -12.09813,6.99593 -24.19627,13.99185 -36.29441,20.98778 10.33818,5.96875 20.67636,11.9375 31.01454,17.90625 12.09813,-6.99593 24.19627,-13.99185 36.29441,-20.98778 -10.33818,-5.96875 -20.67636,-11.9375 -31.01454,-17.90625 z m -41.96869,24.26902 c -12.09813,6.99592 -24.19627,13.99185 -36.29441,20.98777 10.33818,5.96875 20.67636,11.9375 31.01454,17.90625 12.09814,-6.99592 24.19627,-13.99185 36.29441,-20.98777 -10.33818,-5.96875 -20.67636,-11.9375 -31.01454,-17.90625 z m 173.46869,-142.3441 c -12.09758,6.9956 -24.19515,13.9912 -36.29272,20.9868 10.33818,5.96875 20.67635,11.9375 31.01453,17.90625 12.09758,-6.9956 24.19515,-13.9912 36.29272,-20.9868 -10.33818,-5.96875 -20.67635,-11.9375 -31.01453,-17.90625 z m -41.96869,24.26901 c -12.09757,6.9956 -24.19515,13.99121 -36.29272,20.98681 10.33818,5.96875 20.67636,11.9375 31.01453,17.90625 12.09758,-6.9956 24.19515,-13.99121 36.29272,-20.98681 -10.33817,-5.96875 -20.67635,-11.9375 -31.01453,-17.90625 z m -41.967,24.26804 c -12.09813,6.99593 -24.19627,13.99185 -36.29441,20.98778 10.33818,5.96875 20.67636,11.9375 31.01454,17.90625 12.09813,-6.99593 24.19627,-13.99185 36.29441,-20.98778 -10.33818,-5.96875 -20.67636,-11.9375 -31.01454,-17.90625 z m -41.96869,24.26902 c -12.09813,6.99592 -24.19627,13.99185 -36.29441,20.98777 10.33818,5.96876 20.67636,11.9375 31.01454,17.90625 12.09814,-6.99592 24.19627,-13.99185 36.29441,-20.98777 -10.33818,-5.96875 -20.67636,-11.9375 -31.01454,-17.90625 z m -41.96868,24.26901 c -12.09814,6.99593 -24.19628,13.99185 -36.29441,20.98778 10.33817,5.96875 20.67635,11.9375 31.01453,17.90625 12.09814,-6.99593 24.19627,-13.99185 36.29441,-20.98778 -10.33818,-5.96875 -20.67636,-11.9375 -31.01453,-17.90625 z m -41.96869,24.26902 c -12.09814,6.99592 -24.19628,13.99185 -36.29441,20.98777 10.33818,5.96875 20.67635,11.9375 31.01453,17.90625 12.09814,-6.99592 24.19627,-13.99185 36.29441,-20.98777 -10.33818,-5.96875 -20.67635,-11.9375 -31.01453,-17.90625 z m 173.46868,-142.3441 c -12.09757,6.9956 -24.19515,13.9912 -36.29272,20.9868 10.33818,5.96875 20.67636,11.9375 31.01454,17.90625 12.09757,-6.9956 24.19514,-13.9912 36.29272,-20.9868 -10.33818,-5.96875 -20.67636,-11.9375 -31.01454,-17.90625 z M 407.0522,190.5234 c -12.09757,6.9956 -24.19514,13.99121 -36.29272,20.98681 10.33818,5.96875 20.67636,11.9375 31.01454,17.90625 12.09757,-6.9956 24.19514,-13.99121 36.29272,-20.98681 -10.33818,-5.96875 -20.67636,-11.9375 -31.01454,-17.90625 z m -41.96699,24.26804 c -12.09814,6.99593 -24.19628,13.99185 -36.29442,20.98778 10.33818,5.96875 20.67636,11.9375 31.01454,17.90625 12.09814,-6.99593 24.19627,-13.99185 36.29441,-20.98778 -10.33818,-5.96875 -20.67636,-11.9375 -31.01453,-17.90625 z m -41.96869,24.26902 c -12.09814,6.99592 -24.19628,13.99185 -36.29441,20.98777 10.33818,5.96875 20.67635,11.93751 31.01453,17.90625 12.09814,-6.99592 24.19627,-13.99185 36.29441,-20.98777 -10.33818,-5.96875 -20.67635,-11.9375 -31.01453,-17.90625 z m -41.96869,24.26901 c -12.09814,6.99593 -24.19627,13.99185 -36.29441,20.98778 10.33818,5.96875 20.67636,11.9375 31.01453,17.90625 12.09814,-6.99593 24.19628,-13.99185 36.29441,-20.98778 -10.33817,-5.96875 -20.67635,-11.9375 -31.01453,-17.90625 z m -41.96869,24.26902 c -12.09814,6.99592 -24.19627,13.99185 -36.29441,20.98777 10.33818,5.96875 20.67636,11.9375 31.01454,17.90625 12.09813,-6.99592 24.19627,-13.99185 36.2944,-20.98777 -10.33817,-5.96875 -20.67635,-11.9375 -31.01453,-17.90625 z m 173.46868,-142.3441 c -12.09757,6.9956 -24.19514,13.9912 -36.29272,20.9868 10.33818,5.96875 20.67636,11.9375 31.01454,17.90625 12.09757,-6.9956 24.19515,-13.9912 36.29272,-20.9868 -10.33818,-5.96875 -20.67636,-11.9375 -31.01454,-17.90625 z m -41.96868,24.26901 c -12.09758,6.9956 -24.19515,13.99121 -36.29272,20.98681 10.33817,5.96875 20.67635,11.9375 31.01453,17.90625 12.09757,-6.9956 24.19515,-13.99121 36.29272,-20.98681 -10.33818,-5.96875 -20.67636,-11.9375 -31.01453,-17.90625 z m -41.967,24.26804 c -12.09814,6.99593 -24.19627,13.99185 -36.29441,20.98778 10.33818,5.96875 20.67635,11.9375 31.01453,17.90625 12.09814,-6.99593 24.19628,-13.99185 36.29441,-20.98778 -10.33818,-5.96875 -20.67635,-11.9375 -31.01453,-17.90625 z m -41.96869,24.26902 c -12.09814,6.99592 -24.19627,13.99185 -36.29441,20.98777 10.33818,5.96876 20.67636,11.9375 31.01453,17.90625 12.09814,-6.99592 24.19628,-13.99185 36.29442,-20.98777 -10.33818,-5.96875 -20.67636,-11.9375 -31.01454,-17.90625 z m -41.96869,24.26901 c -12.09813,6.99593 -24.19627,13.99185 -36.29441,20.98778 10.33818,5.96875 20.67636,11.9375 31.01454,17.90625 12.09813,-6.99593 24.19627,-13.99185 36.29441,-20.98778 -10.33818,-5.96875 -20.67636,-11.9375 -31.01454,-17.90625 z m -41.96869,24.26902 c -12.09813,6.99592 -24.19627,13.99185 -36.29441,20.98777 10.33818,5.96875 20.67636,11.9375 31.01454,17.90625 12.09813,-6.99592 24.19627,-13.99185 36.29441,-20.98777 -10.33818,-5.96875 -20.67636,-11.9375 -31.01454,-17.90625 z m 173.46869,-142.3441 c -12.09758,6.9956 -24.19515,13.9912 -36.29272,20.9868 10.33818,5.96875 20.67635,11.9375 31.01453,17.90625 12.09758,-6.9956 24.19515,-13.9912 36.29272,-20.9868 -10.33818,-5.96875 -20.67635,-11.9375 -31.01453,-17.90625 z m -41.96869,24.26901 c -12.09757,6.9956 -24.19515,13.99121 -36.29272,20.98681 10.33818,5.96875 20.67636,11.9375 31.01453,17.90625 12.09758,-6.9956 24.19515,-13.99121 36.29272,-20.98681 -10.33817,-5.96875 -20.67635,-11.9375 -31.01453,-17.90625 z m -41.967,24.26804 c -12.09814,6.99593 -24.19627,13.99185 -36.29441,20.98778 10.33818,5.96875 20.67636,11.9375 31.01454,17.90625 12.09813,-6.99593 24.19627,-13.99185 36.29441,-20.98778 -10.33818,-5.96875 -20.67636,-11.9375 -31.01454,-17.90625 z m -41.96869,24.26902 c -12.09813,6.99592 -24.19627,13.99185 -36.29441,20.98777 10.33818,5.96875 20.67636,11.93751 31.01454,17.90625 12.09813,-6.99592 24.19627,-13.99185 36.29441,-20.98777 -10.33818,-5.96875 -20.67636,-11.9375 -31.01454,-17.90625 z m -41.96868,24.26901 c -12.09814,6.99593 -24.19628,13.99185 -36.29441,20.98778 10.33817,5.96875 20.67635,11.9375 31.01453,17.90625 12.09814,-6.99593 24.19627,-13.99185 36.29441,-20.98778 -10.33818,-5.96875 -20.67636,-11.9375 -31.01453,-17.90625 z m -41.96869,24.26902 c -12.09814,6.99592 -24.19628,13.99185 -36.29441,20.98777 10.33818,5.96875 20.67635,11.9375 31.01453,17.90625 12.09814,-6.99592 24.19627,-13.99185 36.29441,-20.98777 -10.33818,-5.96875 -20.67636,-11.9375 -31.01453,-17.90625 z m 173.46868,-142.3441 c -12.09757,6.9956 -24.19515,13.9912 -36.29272,20.9868 10.33818,5.96875 20.67636,11.9375 31.01454,17.90625 12.09757,-6.9956 24.19514,-13.9912 36.29271,-20.9868 -10.33817,-5.96875 -20.67635,-11.9375 -31.01453,-17.90625 z M 297.933,127.5234 c -12.09757,6.9956 -24.19514,13.99121 -36.29272,20.98681 10.33818,5.96875 20.67636,11.9375 31.01454,17.90625 12.09757,-6.9956 24.19514,-13.99121 36.29272,-20.98681 -10.33818,-5.96875 -20.67636,-11.9375 -31.01454,-17.90625 z m -41.967,24.26804 c -12.09813,6.99593 -24.19627,13.99185 -36.29441,20.98778 10.33818,5.96875 20.67636,11.9375 31.01454,17.90625 12.09814,-6.99593 24.19627,-13.99185 36.29441,-20.98778 -10.33818,-5.96875 -20.67636,-11.9375 -31.01454,-17.90625 z m -41.96868,24.26902 c -12.09814,6.99592 -24.19628,13.99185 -36.29441,20.98777 10.33817,5.96875 20.67635,11.93751 31.01453,17.90625 12.09814,-6.99592 24.19627,-13.99185 36.29441,-20.98777 -10.33818,-5.96875 -20.67635,-11.9375 -31.01453,-17.90625 z m -41.96869,24.26901 c -12.09814,6.99593 -24.19627,13.99185 -36.29441,20.98778 10.33818,5.96875 20.67636,11.9375 31.01453,17.90625 12.09814,-6.99593 24.19628,-13.99185 36.29441,-20.98778 -10.33817,-5.96875 -20.67635,-11.9375 -31.01453,-17.90625 z m -41.96869,24.26902 c -12.09814,6.99592 -24.19627,13.99185 -36.29441,20.98777 10.33818,5.96875 20.67636,11.9375 31.01453,17.90625 12.09814,-6.99592 24.19628,-13.99185 36.29441,-20.98777 -10.33817,-5.96875 -20.67635,-11.9375 -31.01453,-17.90625 z M 303.52862,82.254389 c -12.09757,6.9956 -24.19514,13.991201 -36.29272,20.986801 10.33818,5.96875 20.67636,11.9375 31.01454,17.90625 12.09757,-6.9956 24.19515,-13.9912 36.29272,-20.9868 C 324.20498,94.191889 313.8668,88.223139 303.52862,82.254389 Z M 261.55994,106.5234 c -12.09758,6.9956 -24.19515,13.99121 -36.29272,20.98681 10.33817,5.96875 20.67635,11.9375 31.01453,17.90625 12.09757,-6.9956 24.19515,-13.99121 36.29272,-20.98681 -10.33818,-5.96875 -20.67636,-11.9375 -31.01453,-17.90625 z m -41.967,24.26804 c -12.09814,6.99593 -24.19628,13.99185 -36.29441,20.98778 10.33818,5.96875 20.67635,11.9375 31.01453,17.90625 12.09814,-6.99593 24.19628,-13.99185 36.29441,-20.98778 -10.33818,-5.96875 -20.67635,-11.9375 -31.01453,-17.90625 z m -41.96869,24.26902 c -12.09814,6.99592 -24.19627,13.99185 -36.29441,20.98777 10.33818,5.96876 20.67636,11.9375 31.01453,17.90625 12.09814,-6.99592 24.19628,-13.99185 36.29441,-20.98777 -10.33817,-5.96875 -20.67635,-11.9375 -31.01453,-17.90625 z m -41.96869,24.26901 c -12.09813,6.99593 -24.19627,13.99185 -36.294408,20.98778 10.338178,5.96875 20.676358,11.9375 31.014538,17.90625 12.09813,-6.99593 24.19627,-13.99185 36.29441,-20.98778 -10.33818,-5.96875 -20.67636,-11.9375 -31.01454,-17.90625 z m -41.968687,24.26902 c -12.098137,6.99592 -24.196273,13.99185 -36.29441,20.98777 10.338179,5.96875 20.676357,11.9375 31.014535,17.90625 12.098132,-6.99592 24.196272,-13.99185 36.294412,-20.98777 -10.33818,-5.96875 -20.67636,-11.9375 -31.014537,-17.90625 z" /></svg>
